HIERARCHY
ROOT root
{
	OFFSET	0	13.1	24.9
	CHANNELS 6  Xposition Yposition Zposition Xrotation Yrotation Zrotation
	JOINT spine_1
	{
		OFFSET	0	9.99999	0
		CHANNELS 3  Xrotation Yrotation Zrotation
		JOINT spine_2
		{
			OFFSET	0	112	-10
			CHANNELS 3  Xrotation Yrotation Zrotation
			JOINT spine_3
			{
				OFFSET	0	206.5	19.3
				CHANNELS 3  Xrotation Yrotation Zrotation
				JOINT spine_4
				{
					OFFSET	0	110.4	14.6
					CHANNELS 3  Xrotation Yrotation Zrotation
					JOINT neck_1
					{
						OFFSET	0	71.8	-50.3
						CHANNELS 3  Xrotation Yrotation Zrotation
						JOINT neck_2
						{
							OFFSET	0	86.2	-25.8
							CHANNELS 3  Xrotation Yrotation Zrotation
							JOINT head_ee
							{
								OFFSET	0	179.8	-8.7
								CHANNELS 3  Xrotation Yrotation Zrotation
								End Site
								{
									OFFSET	1	0	0
								}
							}
						}
					}
					JOINT left_clavicle
					{
						OFFSET	-43.2	22.4	-70.8
						CHANNELS 3  Xrotation Yrotation Zrotation
						JOINT left_shoulder
						{
							OFFSET	-93.9	-5.79999	48.7
							CHANNELS 3  Xrotation Yrotation Zrotation
							JOINT left_elbow
							{
								OFFSET	-291.4	-30.8	15.2
								CHANNELS 3  Xrotation Yrotation Zrotation
								JOINT left_lowarm_twist
								{
									OFFSET	-110.7	-3.89999	13.6
									CHANNELS 3  Xrotation Yrotation Zrotation
									JOINT left_hand
									{
										OFFSET	-110.7	-3.89999	13.6
										CHANNELS 3  Xrotation Yrotation Zrotation
										JOINT left_ee
										{
											OFFSET	-80.8	-5.10001	12.1
											CHANNELS 3  Xrotation Yrotation Zrotation
											End Site
											{
												OFFSET	1	0	0
											}
										}
									}
								}
							}
						}
					}
					JOINT right_clavicle
					{
						OFFSET	43.2	22.4	-70.8
						CHANNELS 3  Xrotation Yrotation Zrotation
						JOINT right_shoulder
						{
							OFFSET	93.9	-5.79999	48.7
							CHANNELS 3  Xrotation Yrotation Zrotation
							JOINT right_elbow
							{
								OFFSET	291.4	-30.8	15.2
								CHANNELS 3  Xrotation Yrotation Zrotation
								JOINT right_lowarm_twist
								{
									OFFSET	110.7	-3.89999	13.6
									CHANNELS 3  Xrotation Yrotation Zrotation
									JOINT right_hand
									{
										OFFSET	110.7	-3.89999	13.6
										CHANNELS 3  Xrotation Yrotation Zrotation
										JOINT right_ee
										{
											OFFSET	80.8	-5.10001	12.1
											CHANNELS 3  Xrotation Yrotation Zrotation
											End Site
											{
												OFFSET	1	0	0
											}
										}
									}
								}
							}
						}
					}
				}
			}
		}
	}
	JOINT left_hip
	{
		OFFSET	-82.8	-127.5	0.300001
		CHANNELS 3  Xrotation Yrotation Zrotation
		JOINT left_knee
		{
			OFFSET	-28.2	-396.7	2.2
			CHANNELS 3  Xrotation Yrotation Zrotation
			JOINT left_ankle
			{
				OFFSET	-11.7	-411.3	35.4
				CHANNELS 3  Xrotation Yrotation Zrotation
				JOINT left_toes
				{
					OFFSET	0	-60	-88.6
					CHANNELS 3  Xrotation Yrotation Zrotation
					JOINT left_foot_ee
					{
						OFFSET	-22.5	-16.5	-42.2
						CHANNELS 3  Xrotation Yrotation Zrotation
						End Site
						{
							OFFSET	1	0	0
						}
					}
				}
			}
		}
	}
	JOINT right_hip
	{
		OFFSET	82.8	-127.5	0.300001
		CHANNELS 3  Xrotation Yrotation Zrotation
		JOINT right_knee
		{
			OFFSET	28.2	-396.7	2.2
			CHANNELS 3  Xrotation Yrotation Zrotation
			JOINT right_ankle
			{
				OFFSET	11.7	-411.3	35.4
				CHANNELS 3  Xrotation Yrotation Zrotation
				JOINT right_toes
				{
					OFFSET	0	-60	-88.6
					CHANNELS 3  Xrotation Yrotation Zrotation
					JOINT right_foot_ee
					{
						OFFSET	22.5	-16.5	-42.2
						CHANNELS 3  Xrotation Yrotation Zrotation
						End Site
						{
							OFFSET	1	0	0
						}
					}
				}
			}
		}
	}
}
MOTION
Frames: 12
Frame Time: 0.02
1372.05 701.618 -1475.22 19.2882649349 69.570513209 -19.4624687666 -1.89015 -0.245559 -1.08003 -1.88952 -0.17634 -1.09347 -1.88542 0.0937808 -1.10362 -1.88711 -0.081681 -1.10458 -15.2516 3.22949 5.7792 -15.1635 2.76971 6.52857 -0.0 0.0 -0.0 3.19021 4.16065 6.39732 6.0634 -14.1339 65.076 2.84455 -54.6274 1.46926 -31.845 -2.12854 3.41561 1.13078 5.39863 9.71916 -0.0 0.0 -0.0 5.91961 26.0581 -9.8597 -18.8605 8.34162 -65.6099 0.275124 7.76112 -0.0186624 32.4224 0.0148482 4.08696 1.6261 -29.4665 -20.6303 0.0 0.0 0.0 -24.9737 7.76588 11.7241 -3.14051 0.116506 0.467826 -17.6988 -19.8798 3.0277 -14.0625 0.0 0.0 -0.0 0.0 -0.0 20.4341 -4.05454 -4.03673 -6.31273 -0.207964 -0.94601 -21.8471 16.1019 -3.6191 10.8771 -0.0 -0.0 0.0 0.0 0.0 
1372.05 701.618 -1475.22 19.4474999415 69.7384856298 -19.6322987499 -1.89015 -0.245559 -1.08003 -1.88952 -0.17634 -1.09347 -1.88542 0.0937808 -1.10362 -1.88711 -0.081681 -1.10458 -15.2516 3.22949 5.7792 -15.1635 2.76971 6.52857 -0.0 0.0 -0.0 3.19021 4.16065 6.39732 6.0634 -14.1339 65.076 2.84455 -54.6274 1.46926 -31.845 -2.12854 3.41561 1.13078 5.39863 9.71916 -0.0 0.0 -0.0 5.91961 26.0581 -9.8597 -18.8605 8.34162 -65.6099 0.275124 7.76112 -0.0186624 32.4224 0.0148482 4.08696 1.6261 -29.4665 -20.6303 0.0 0.0 0.0 -24.9737 7.76588 11.7241 -3.14051 0.116506 0.467826 -17.6988 -19.8798 3.0277 -14.0625 0.0 0.0 -0.0 0.0 -0.0 20.4341 -4.05454 -4.03673 -6.31273 -0.207964 -0.94601 -21.8471 16.1019 -3.6191 10.8771 -0.0 -0.0 0.0 0.0 0.0 
1343.37012866 702.166 -1480.6653029 24.5065301639 71.0267453472 -23.8625717051 -1.91702 -0.199015 -1.14692 -1.9163 -0.125635 -1.15726 -1.91298 0.158994 -1.15315 -1.91484 -0.0251066 -1.16378 -17.1991 2.6487 2.59872 -17.1939 3.64222 3.40643 -0.0 0.0 -0.0 3.88586 6.36966 7.77817 6.34275 -15.3709 66.1742 2.35593 -49.401 1.08375 -32.031 -2.14624 3.43159 1.68112 15.8958 17.1121 -0.0 0.0 -0.0 6.10225 27.0693 -10.1527 -17.2451 6.65809 -66.5352 0.2004 5.66943 -0.00992286 31.7507 -0.00893442 4.00447 0.419727 -29.0936 -13.692 0.0 0.0 0.0 -25.0781 8.4648 9.52005 -8.8006 0.261081 1.32406 -19.9655 -18.059 3.36171 -14.4528 0.0 0.0 -0.0 0.0 -0.0 19.9462 -5.03367 -3.61658 -12.3446 -0.308297 -1.86572 -20.0637 16.596 -3.33642 18.9301 -0.0 -0.0 0.0 0.0 0.0 
1323.21219349 703.197 -1486.40426487 26.849249946 71.9743200233 -25.4444016424 -1.83907 -0.308507 -1.29717 -1.83816 -0.225347 -1.31417 -1.83194 0.0984487 -1.32971 -1.83439 -0.11277 -1.32857 -18.0534 3.70135 2.11096 -18.0827 5.97709 3.38883 -0.0 0.0 -0.0 3.44906 5.467 6.94252 5.27175 -14.1337 66.9353 2.08059 -45.8596 0.88023 -29.2823 -1.88998 3.18962 1.91189 21.9206 20.4097 -0.0 0.0 -0.0 5.99443 26.8353 -9.94212 -15.108 7.34246 -65.8627 0.227483 6.42961 -0.0127773 34.0387 0.0760296 4.28427 1.16713 -29.248 -17.9368 0.0 0.0 0.0 -22.3204 8.88437 6.7466 -16.8528 0.319831 2.55714 -17.6897 -16.5687 2.93844 -12.0522 0.0 0.0 -0.0 0.0 -0.0 18.8139 -5.37151 -4.53031 -13.8088 -0.318008 -2.09016 -18.3184 17.3623 -3.06413 19.0042 -0.0 -0.0 0.0 0.0 0.0 
1323.33142064 703.197 -1486.91269643 26.0446653162 71.4395976133 -24.597002732 -1.83907 -0.308507 -1.29717 -1.83816 -0.225347 -1.31417 -1.83194 0.0984487 -1.32971 -1.83439 -0.11277 -1.32857 -18.0534 3.70135 2.11096 -18.0827 5.97709 3.38883 -0.0 0.0 -0.0 3.44906 5.467 6.94252 5.27175 -14.1337 66.9353 2.08059 -45.8596 0.88023 -29.2823 -1.88998 3.18962 1.91189 21.9206 20.4097 -0.0 0.0 -0.0 5.99443 26.8353 -9.94212 -15.108 7.34246 -65.8627 0.227483 6.42961 -0.0127773 34.0387 0.0760296 4.28427 1.16713 -29.248 -17.9368 0.0 0.0 0.0 -22.3204 8.88437 6.7466 -16.8528 0.319831 2.55714 -17.6897 -16.5687 2.93844 -12.0522 0.0 0.0 -0.0 0.0 -0.0 18.8139 -5.37151 -4.53031 -13.8088 -0.318008 -2.09016 -18.3184 17.3623 -3.06413 19.0042 -0.0 -0.0 0.0 0.0 0.0 
1300.08954167 706.57 -1495.04987546 24.1907716873 72.7655932243 -22.5284201904 -1.70931 -0.204457 -1.27065 -1.70842 -0.123195 -1.28108 -1.70477 0.186793 -1.27336 -1.70703 -0.0166373 -1.28688 -17.3836 4.07249 1.53158 -17.4311 6.97916 2.94833 -0.0 0.0 -0.0 3.31634 7.33965 6.79063 1.68953 -22.6683 65.2108 1.6889 -39.9136 0.613306 -26.659 -1.65655 2.94755 2.65281 26.3724 26.1773 -0.0 0.0 -0.0 6.11034 28.293 -10.0385 -13.5168 4.66517 -66.8524 0.325087 9.14847 -0.0260088 32.4557 0.0160528 4.09104 0.0455983 -29.086 -11.6241 0.0 0.0 0.0 -17.9982 11.6922 3.04058 -23.3228 0.241403 3.54628 -21.6162 -19.7611 3.69736 -11.584 0.0 0.0 -0.0 0.0 -0.0 16.6944 -7.50685 -5.27096 -10.9724 -0.293993 -1.65568 -18.301 19.0498 -3.10736 20.214 -0.0 -0.0 0.0 0.0 0.0 
1285.66324922 708.536 -1505.64457504 22.070944425 71.5442296901 -18.7991595766 -1.3928 -0.138326 -1.27546 -1.3919 -0.0568923 -1.28167 -1.38986 0.24441 -1.25944 -1.39207 0.0424547 -1.28223 -18.3419 4.45511 1.20703 -18.4149 7.92615 2.86029 -0.0 0.0 -0.0 2.92703 7.33755 6.09325 -1.57098 -27.2379 64.0746 1.4 -34.7402 0.437951 -24.2549 -1.4526 2.71662 2.65407 29.8979 26.8465 -0.0 0.0 -0.0 6.36679 28.639 -10.5598 -12.8871 4.95848 -66.8809 0.530918 14.7353 -0.0686501 32.5069 0.017909 4.09732 -0.223933 -29.1169 -10.1598 0.0 0.0 0.0 -12.64 9.80225 0.0361045 -33.0419 -0.084415 5.0005 -22.5117 -6.13079 3.50219 -10.5106 0.0 0.0 -0.0 0.0 -0.0 13.633 -5.91127 -8.49975 -5.79629 -0.194883 -0.867835 -20.3202 22.3036 -3.56453 16.8037 -0.0 -0.0 0.0 0.0 0.0 
1286.5610027 708.536 -1508.08269642 20.3821265297 70.0289112652 -17.0108965915 -1.3928 -0.138326 -1.27546 -1.3919 -0.0568923 -1.28167 -1.38986 0.24441 -1.25944 -1.39207 0.0424547 -1.28223 -18.3419 4.45511 1.20703 -18.4149 7.92615 2.86029 -0.0 0.0 -0.0 2.92703 7.33755 6.09325 -1.57098 -27.2379 64.0746 1.4 -34.7402 0.437951 -24.2549 -1.4526 2.71662 2.65407 29.8979 26.8465 -0.0 0.0 -0.0 6.36679 28.639 -10.5598 -12.8871 4.95848 -66.8809 0.530918 14.7353 -0.0686501 32.5069 0.017909 4.09732 -0.223933 -29.1169 -10.1598 0.0 0.0 0.0 -12.64 9.80225 0.0361045 -33.0419 -0.084415 5.0005 -22.5117 -6.13079 3.50219 -10.5106 0.0 0.0 -0.0 0.0 -0.0 13.633 -5.91127 -8.49975 -5.79629 -0.194883 -0.867835 -20.3202 22.3036 -3.56453 16.8037 -0.0 -0.0 0.0 0.0 0.0 
1261.35430756 717.93 -1512.25451424 17.9962773345 66.6672828534 -14.5980984321 -1.38466 0.0356513 -1.17462 -1.38389 0.110318 -1.16997 -1.38564 0.380806 -1.11176 -1.38731 0.200457 -1.15794 -18.8418 4.78591 0.822211 -18.9395 8.78199 2.6737 -0.0 0.0 -0.0 2.97562 8.61057 6.2475 -2.45206 -22.375 66.1685 1.11668 -28.9492 0.288274 -22.2905 -1.2933 2.52178 2.55985 30.0072 26.2889 -0.0 0.0 -0.0 6.4398 28.7189 -10.7103 -11.8243 5.32073 -66.5406 0.778991 21.101 -0.14509 31.1775 -0.0284613 3.93388 -0.307171 -28.9756 -9.65445 0.0 0.0 0.0 -6.13549 9.36568 -0.843134 -46.9636 -0.968123 6.94414 -15.2423 -4.515 2.34771 -7.94203 0.0 0.0 -0.0 0.0 -0.0 10.0543 -6.15227 -8.6245 -3.28293 -0.121179 -0.489185 -20.4792 23.3683 -3.63372 19.6977 -0.0 -0.0 0.0 0.0 0.0 
1234.74668374 720.386 -1521.33635793 17.3542799051 66.1442540172 -14.1731102764 -1.21204 0.00400282 -0.963785 -1.21153 0.06532 -0.961578 -1.21228 0.285529 -0.920532 -1.21344 0.136572 -0.954069 -18.2148 6.49792 2.27141 -18.3552 11.2808 4.64391 -0.0 0.0 -0.0 2.86828 8.82492 6.06989 -7.25146 -26.3135 65.4193 0.939267 -24.9515 0.207818 -21.9795 -1.2687 2.49044 2.45916 29.7111 25.6227 -0.0 0.0 -0.0 6.62226 28.8307 -11.0962 -12.0565 5.46302 -66.5687 0.969747 25.6584 -0.220846 31.9311 -0.00264243 4.02665 -0.122764 -27.8732 -10.269 0.0 0.0 0.0 1.91466 12.6701 -5.79966 -57.2331 -1.90874 8.21361 -21.7017 -2.58521 3.32801 -7.49776 0.0 0.0 -0.0 0.0 -0.0 6.15085 -6.85238 -8.08523 0.881937 0.0373204 0.13019 -17.9508 27.7433 -3.35302 17.0029 -0.0 -0.0 0.0 0.0 0.0 
1196.75716718 721.344 -1524.35807992 17.6414910369 65.9721649058 -15.3244024693 -1.08516 0.100621 -0.344644 -1.0851 0.122347 -0.337543 -1.08581 0.196292 -0.300622 -1.0859 0.146351 -0.32785 -19.1376 6.067 2.11474 -19.2729 10.5825 4.42191 -0.0 0.0 -0.0 2.38344 10.4328 5.3202 -11.7085 -23.0092 66.028 0.774808 -20.9976 0.143587 -23.0535 -1.35438 2.5981 2.55116 29.8727 26.2121 -0.0 0.0 -0.0 6.68456 28.9287 -11.2213 -9.39677 5.79746 -66.6049 1.25425 31.852 -0.357911 32.8384 0.030062 4.1379 0.280237 -24.2606 -11.282 0.0 0.0 0.0 4.74738 17.8904 -8.04563 -59.7175 -2.16956 8.49425 -22.7057 -4.89019 3.51309 -5.06024 0.0 0.0 -0.0 0.0 -0.0 3.42602 -6.38979 -6.79494 0.460368 0.0192304 0.0680292 -12.243 28.6418 -2.30303 15.9878 -0.0 -0.0 0.0 0.0 0.0 
1169.62184152 720.847 -1523.52572053 18.0501664755 65.5479861343 -16.1714545779 -0.95215 0.17569 -0.217507 -0.952143 0.189175 -0.205887 -0.952844 0.230877 -0.157709 -0.952822 0.203073 -0.192192 -18.1652 5.71681 1.29602 -18.2895 10.3002 3.42464 -0.0 0.0 -0.0 2.04777 12.9756 4.91597 -14.2388 -21.7901 66.7679 0.737266 -20.0632 0.130421 -23.6598 -1.40364 2.65817 2.374 29.7452 25.1134 -0.0 0.0 -0.0 6.89567 28.9624 -11.6788 -8.1871 5.83957 -65.6902 1.32872 33.3517 -0.398042 33.3678 0.0499565 4.20257 0.510592 -23.6383 -12.416 0.0 0.0 0.0 6.52199 20.0969 -8.79155 -61.8228 -2.39999 8.72314 -22.198 -4.25723 3.42561 -4.01039 0.0 0.0 -0.0 0.0 -0.0 1.06374 -7.40014 -5.36677 -0.822746 -0.0330022 -0.121946 -3.58711 29.3248 -0.670274 17.9602 -0.0 -0.0 0.0 0.0 0.0 
